<?xml version="1.0" encoding="UTF-8" standalone="no"?>
<svg
   xmlns:dc="http://purl.org/dc/elements/1.1/"
   xmlns:cc="http://creativecommons.org/ns#"
   xmlns:rdf="http://www.w3.org/1999/02/22-rdf-syntax-ns#"
   xmlns:svg="http://www.w3.org/2000/svg"
   xmlns="http://www.w3.org/2000/svg"
   xmlns:sodipodi="http://sodipodi.sourceforge.net/DTD/sodipodi-0.dtd"
   xmlns:inkscape="http://www.inkscape.org/namespaces/inkscape"
   width="1329.5371"
   height="874.40527"
   version="1.1"
   id="svg2"
   inkscape:version="0.48.4 r9939"
   sodipodi:docname="CIE_RGB.pdf">
  <sodipodi:namedview
     pagecolor="#ffffff"
     bordercolor="#666666"
     borderopacity="1"
     objecttolerance="10"
     gridtolerance="10"
     guidetolerance="10"
     inkscape:pageopacity="0"
     inkscape:pageshadow="2"
     inkscape:window-width="1855"
     inkscape:window-height="1056"
     id="namedview59"
     showgrid="false"
     inkscape:zoom="1.0030678"
     inkscape:cx="658.9784"
     inkscape:cy="437.20263"
     inkscape:window-x="1425"
     inkscape:window-y="24"
     inkscape:window-maximized="1"
     inkscape:current-layer="svg2"
     fit-margin-top="0"
     fit-margin-left="0"
     fit-margin-right="0"
     fit-margin-bottom="0" />
  <metadata
     id="metadata63">
    <rdf:RDF>
      <cc:Work
         rdf:about="">
        <dc:format>image/svg+xml</dc:format>
        <dc:type
           rdf:resource="http://purl.org/dc/dcmitype/StillImage" />
        <dc:title></dc:title>
      </cc:Work>
    </rdf:RDF>
  </metadata>
  <defs
     id="defs61" />
  <path
     style="fill:none;stroke:#000000;stroke-width:3.75"
     inkscape:connector-curvature="0"
     d="m 141.0818,743.39844 h 12.5 m -12.5,-15 h 12.5 m -12.5,-15 h 12.5 m -12.5,-15 h 12.5 m -12.5,-15 h 12.5 m -12.5,-15 h 12.5 m -12.5,-15 h 12.5 m -12.5,-15 h 12.5 m -12.5,-15 h 12.5 m -12.5,-15 h 25 m -25,-15 h 12.5 m -12.5,-15 h 12.5 m -12.5,-15 h 12.5 m -12.5,-15 h 12.5 m -12.5,-15 h 12.5 m -12.5,-15 h 12.5 m -12.5,-15 h 12.5 m -12.5,-15 h 12.5 m -12.5,-15 h 12.5 m -12.5,-15 h 25 m -25,-15 h 12.5 m -12.5,-15 h 12.5 m -12.5,-15 h 12.5 m -12.5,-15 h 12.5 m -12.5,-15 h 12.5 m -12.5,-15 h 12.5 m -12.5,-15 h 12.5 m -12.5,-15 h 12.5 m -12.5,-15 h 12.5 m -12.5,-15 h 25 m -25,-15 h 12.5 m -12.5,-15 h 12.5 m -12.5,-15 h 12.5 m -12.5,-15 h 12.5 m -12.5,-15 h 12.5 m -12.5,-15 h 12.5 m -12.5,-15 h 12.5 m -12.5,-15 h 12.5 m -12.5,-15 h 12.5 m -12.5,-15 h 25 m -25,-15 h 12.5 m -12.5,-15 h 12.5 m -12.5,-15 h 12.5 m -12.5,-14.999999 h 12.5 m -12.5,-15.000004 h 12.5 m -12.5,-15 h 12.5 m -12.5,-15 h 12.5 m -12.5,-15 h 12.5 m -12.5,-15 h 12.5"
     id="v" />
  <path
     style="fill:none;stroke:#000000;stroke-width:3.75"
     inkscape:connector-curvature="0"
     d="m 166.0818,758.39844 v -12.5 m 25,12.5 v -12.5 m 25,12.5 v -12.5 m 25,12.5 v -25 m 25,25 v -12.5 m 25,12.5 v -12.5 m 25,12.5 v -12.5 m 25,12.5 v -12.5 m 25,12.5 v -12.5 m 25,12.5 v -12.5 m 25,12.5 v -12.5 m 25,12.5 v -12.5 m 25,12.5 v -12.5 m 25,12.5 v -25 m 25,25 v -12.5 m 25,12.5 v -12.5 m 25,12.5 v -12.5 m 25,12.5 v -12.5 m 25,12.5 v -12.5 m 25,12.5 v -12.5 m 25,12.5 v -12.5 m 25,12.5 v -12.5 m 25,12.5 v -12.5 m 25,12.5 v -25 m 25,25 v -12.5 m 25,12.5 v -12.5 m 25,12.5 v -12.5 m 25,12.5 v -12.5 m 25,12.5 v -12.5 m 25,12.5 v -12.5 m 25,12.5 v -12.5 m 25,12.5 v -12.5 m 25,12.5 v -12.5 m 25,12.5 v -25 m 25,25 v -12.5 m 25,12.5 v -12.5 m 25,12.5 v -12.5 m 25,12.5 v -12.5 m 25,12.5 v -12.5 m 25,12.5 v -12.5 m 25,12.5 v -12.5 m 25,12.5 v -12.5 m 25,12.5 v -12.5 m 25,12.5 v -25 m 25,25 v -12.5 m 25,12.5 v -12.5"
     id="h" />
  <path
     style="fill:none;stroke:#000000;stroke-width:3.75"
     inkscape:connector-curvature="0"
     id="path11"
     d="m 141.0818,608.39844 1175,0" />
  <path
     style="fill:none;stroke:#ff0000;stroke-width:3.75"
     inkscape:connector-curvature="0"
     id="path13"
     d="m 141.0818,608.39314 2.5,-6e-4 2.5,-6.7e-4 2.5,-7.5e-4 2.5,-8.4e-4 2.5,-9.3e-4 2.5,-0.001 2.5,-10e-4 2.5,-10e-4 2.5,-10e-4 2.5,-0.002 2.5,-0.002 2.5,-0.002 2.5,-0.002 2.5,-0.003 2.5,-0.003 2.5,-0.003 2.5,-0.004 2.5,-0.004 2.5,-0.005 2.5,-0.005 2.5,-0.005 2.5,-0.005 2.5,-0.005 2.5,-0.007 2.5,-0.008 2.5,-0.01 2.5,-0.0119 2.5,-0.0135 2.5,-0.0148 2.5,-0.0159 2.5,-0.0166 2.5,-0.018 2.5,-0.0204 2.5,-0.024 2.5,-0.0286 2.5,-0.0347 2.5,-0.04 2.5,-0.0433 2.5,-0.0446 2.5,-0.0439 2.5,-0.0417 2.5,-0.0421 2.5,-0.0467 2.5,-0.0553 2.5,-0.068 2.5,-0.083 2.5,-0.0968 2.5,-0.10949 2.5,-0.12107 2.5,-0.13151 2.5,-0.14025 2.5,-0.14971 2.5,-0.16171 2.5,-0.17626 2.5,-0.19333 2.5,-0.20977 2.5,-0.22057 2.5,-0.2263 2.5,-0.22698 2.5,-0.2227 2.5,-0.21579 2.5,-0.20063 2.5,-0.1715 2.5,-0.12858 2.5,-0.0717 2.5,-0.007 2.5,0.0595 2.5,0.13213 2.5,0.21072 2.5,0.29518 2.5,0.38618 2.5,0.475 2.5,0.55635 2.5,0.63018 2.5,0.69654 2,0.53455 0.5,0.22602 2.5,0.82721 2.5,0.89387 2.5,0.9607 2.5,1.02753 2.5,1.09297 2.5,1.15962 2.5,1.23033 2.5,1.30525 2.5,1.38417 2.5,1.46408 2.5,1.54172 2.5,1.61898 2.5,1.6958 2.5,1.77205 2.5,1.84553 2.5,1.91432 2.5,1.97997 2.5,2.04263 2.5,2.102 2.5,2.1585 2.5,2.20325 2.5,2.23025 2.5,2.23925 2.5,2.23075 2.5,2.21375 2.5,2.19025 2.5,2.153 2.5,2.10175 2.5,2.037 2.5,1.96 2.5,1.887 2.5,1.8245 2.5,1.7725 2.5,1.731 2.5,1.694 2.5,1.65325 2.5,1.6105 2.5,1.56575 2.5,1.5195 2.5,1.47425 2.5,1.434 2.5,1.3975 2.5,1.36375 2.5,1.3335 2.5,1.309 2.5,1.2915 2.5,1.27875 2.5,1.27075 2.5,1.2675 2.5,1.26525 2.5,1.27875 2.5,1.31925 2.5,1.38725 2.5,1.4825 2.5,1.59675 2.5,1.7065 2.5,1.80825 2.5,1.90225 2.5,1.988 2.5,2.05875 2.5,2.13875 2.5,2.247 2.5,2.3835 2.5,2.54825 2.5,2.7325 2.5,2.865 2.5,2.92025 2.5,2.89825 2.5,2.798 2.5,2.6495 2.5,2.501 2.5,2.34825 2.5,2.192 2.5,2.032 2.5,1.8565 2.5,1.6455 2.5,1.40025 2.5,1.121 2.5,0.80725 2.5,0.47675 2.5,0.1315 2.5,-0.24475 2.5,-0.6515 2.5,-1.08925 2.5,-1.54925 2.5,-1.9915 2.5,-2.40625 2.5,-2.79225 2.5,-3.1505 2.5,-3.50025 2.5,-3.84025 2.5,-4.14875 2.5,-4.42675 2.5,-4.6735 2.5,-4.89875 2.5,-5.12425 2.5,-5.3525 2.5,-5.582 2.5,-5.81425 2.5,-6.04075 2.5,-6.26225 2.5,-6.48675 2.5,-6.71425 2.5,-6.94475 2.5,-7.176 2.5,-7.40275 2.5,-7.62425 2.5,-7.8414 2.5,-8.0533 2.5,-8.26197 0.25,-0.92258 2.25,-7.54742 2.5,-8.67743 2.5,-8.88415 2.5,-9.09025 2.5,-9.30225 2.5,-9.50575 2.5,-9.70525 2.5,-9.901 2.5,-10.094 2.5,-10.287 2.5,-10.47325 2.5,-10.6465 2.5,-10.80825 2.5,-10.9585 2.5,-11.10125 2.5,-11.2285 2.5,-11.349 2.5,-11.46225 2.5,-11.56875 2.5,-11.66525 2.5,-11.745 2.5,-11.80725 2.5,-11.85225 2.5,-11.8795 2.5,-11.89 2.5,-11.885 2.5,-11.86 2.5,-11.8175 2.5,-11.7625 2.5,-11.69 2.5,-11.59 2.5,-11.46 2.5,-11.3 2.5,-11.1075 2.5,-10.8925 2.5,-10.655 2.5,-10.4025 2.5,-10.13 2.5,-9.8375 2.5,-9.515 2.5,-9.175 2.5,-8.8275 2.5,-8.47 2.5,-8.1025 2.5,-7.7425 2.5,-7.3325 2.5,-6.85 2.5,-6.2925 2.5,-5.6575 2.5,-4.965 2.5,-4.295 2.5,-3.684999 2.5,-3.122504 2.5,-2.6175 2.5,-2.1425 2.5,-1.6225 2.5,-1.0375 2.5,-0.395 2.5,0.315 2.5,1.0575 2.5,1.7575 2.5,2.41 2.5,3.0025 2.5,3.545004 2.5,4.064999 2.5,4.5925 2.5,5.1175 2.5,5.64 2.5,6.165 2.5,6.6575 2.5,7.145 2.5,7.65 2.5,8.18 2.5,8.73 2.5,9.2775 2.5,9.76 2.5,10.1625 2.5,10.4775 2.5,10.715 2.5,10.9175 2.5,11.07 2.5,11.12 2.5,11.0675 2.5,10.91 2.5,10.6725 2.5,10.455 2.5,10.285 2.5,10.1625 2.5,10.0825 2.5,10.0125 2.5,9.9075 2.5,9.805 2.5,9.69725 2.5,9.585 2.5,9.472 2.5,9.34625 2.5,9.202 2.5,9.038 2.5,8.855 2.5,8.66425 2.5,8.46375 2.5,8.241 2.5,7.99625 2.5,7.72925 2.5,7.445 2.5,7.1695 2.5,6.90975 2.5,6.6665 2.5,6.43925 2.5,6.217 2.5,5.9915 2.5,5.77 2.5,5.55175 2.5,5.33725 2.5,5.12625 2.5,4.91625 2.5,4.70525 2.5,4.4935 2.5,4.28125 2.5,4.07425 2.5,3.86725 2.5,3.65225 2.5,3.42975 2.5,3.19875 2.5,2.967 2.5,2.75025 2.5,2.5515 2.5,2.37 2.5,2.20625 2.5,2.048 2.5,1.903 2.5,1.78825 2.5,1.7025 2.5,1.647 2.5,1.61328 2.5,1.57195 2.5,1.51495 2.5,1.44247 2.5,1.35443 2.5,1.26347 2.5,1.1815 2.5,1.10168 2.5,1.02412 2.5,0.9488 2.5,0.87468 2.5,0.80362 2.5,0.73773 2.5,0.6769 2.5,0.6212 2.5,0.56824 2.5,0.51953 2.5,0.47803 2.5,0.44387 2.5,0.41715 2.5,0.3954 2.5,0.37408 2.5,0.35237 2.5,0.33023 2.5,0.3077 2.5,0.28632 2.5,0.26742 2.5,0.25 2.5,0.23398 2.5,0.21945 2.5,0.20615 2.5,0.19353 2.5,0.18152 2.5,0.17013 2.5,0.1593 2.5,0.14927 2.5,0.13987 2.5,0.13078 2.5,0.12204 2.5,0.11363 2.5,0.10564 2.5,0.0982 2.5,0.0915 2.5,0.0854 2.5,0.0799 2.5,0.0749 2.5,0.0702 2.5,0.0657 2.5,0.0616 2.5,0.0577 2.5,0.0541 2.5,0.0508 2.5,0.0476 2.5,0.0444 2.5,0.0414 2.5,0.0386 2.5,0.0359 2.5,0.0334 2.5,0.0311 2.5,0.0289 2.5,0.0268 2.5,0.0249 2.5,0.0231 2.5,0.0214 2.5,0.0197 2.5,0.0182 2.5,0.0168 2.5,0.0155 2.5,0.0143 2.5,0.0132 2.5,0.0122 2.5,0.0113 2.5,0.0105 2.5,0.01 2.5,0.009 2.5,0.008 2.5,0.008 2.5,0.007 2.5,0.007 2.5,0.006 2.5,0.006 2.5,0.006 2.5,0.005 2.5,0.005 2.5,0.005 2.5,0.004 2.5,0.004 2.5,0.004 2.5,0.003 2.5,0.003 2.5,0.003 2.5,0.003 2.5,0.003 2.5,0.002 2.5,0.002 2.5,0.002 2.5,0.002 2.5,0.002 2.5,0.002 2.5,0.002 2.5,0.002 2.5,10e-4 2.5,10e-4 2.5,10e-4 2.5,10e-4 2.5,0.001 2.5,10e-4 2.5,9.4e-4 2.5,8.7e-4 2.5,8.2e-4 2.5,7.6e-4 2.5,7.1e-4 2.5,6.6e-4 2.5,6.1e-4 2.5,5.7e-4 2.5,5.4e-4 2.5,4.9e-4 2.5,4.7e-4 2.5,4.3e-4 2.5,4e-4 2.5,3.8e-4 2.5,3.5e-4 2.5,3.3e-4 2.5,3e-4 2.5,2.9e-4 2.5,2.6e-4 2.5,2.5e-4 2.5,2.3e-4 2.5,2.1e-4 2.5,2e-4 2.5,1.9e-4 2.5,1.8e-4 2.5,1.6e-4 2.5,1.5e-4 2.5,1.4e-4 2.5,1.3e-4 2.5,1.2e-4 2.5,1.2e-4 2.5,10e-5 2.5,10e-5 2.5,1e-4 2.5,8e-5 2.5,8e-5 2.5,8e-5 2.5,7e-5 2.5,6e-5 2.5,6e-5 2.5,6e-5 2.5,5e-5 2.5,5e-5" />
  <path
     style="fill:none;stroke:#00ff00;stroke-width:3.75"
     inkscape:connector-curvature="0"
     id="path15"
     d="m 141.0818,608.40044 2.5,2.4e-4 2.5,2.7e-4 2.5,3e-4 2.5,3.3e-4 2.5,3.8e-4 2.5,4.2e-4 2.5,4.8e-4 2.5,5.3e-4 2.5,5.9e-4 2.5,6.6e-4 2.5,7.1e-4 2.5,7.8e-4 2.5,9.1e-4 2.5,10e-4 2.5,10e-4 2.5,0.002 2.5,0.002 2.5,0.002 2.5,0.002 2.5,0.002 2.5,0.002 2.5,0.002 2.5,0.002 2.5,0.003 2.5,0.004 2.5,0.004 2.5,0.005 2.5,0.006 2.5,0.007 2.5,0.007 2.5,0.007 2.5,0.008 2.5,0.009 2.5,0.0109 2.5,0.0131 2.5,0.0161 2.5,0.0188 2.5,0.0205 2.5,0.0212 2.5,0.0209 2.5,0.0201 2.5,0.0205 2.5,0.0229 2.5,0.0272 2.5,0.0336 2.5,0.041 2.5,0.0481 2.5,0.0548 2.5,0.0613 2.5,0.0676 2.5,0.0731 2.5,0.079 2.5,0.0861 2.5,0.0946 2.5,0.10427 2.5,0.11349 2.5,0.11984 2.5,0.12397 2.5,0.12588 2.5,0.12558 2.5,0.12426 2.5,0.11785 2.5,0.10312 2.5,0.08 2.5,0.0486 2.5,0.0124 2.5,-0.0251 2.5,-0.0652 2.5,-0.10806 2.5,-0.15365 2.5,-0.20203 2.5,-0.25035 2.5,-0.29708 2.5,-0.3422 2.5,-0.38575 2,-0.30807 0.5,-0.12176 2.5,-0.47333 2.5,-0.51355 2.5,-0.55052 2.5,-0.58421 2.5,-0.61563 2.5,-0.64898 2.5,-0.68537 2.5,-0.72488 2.5,-0.76739 2.5,-0.81141 2.5,-0.85434 2.5,-0.89661 2.5,-0.9382 2.5,-0.97909 2.5,-1.01908 2.5,-1.05975 2.5,-1.10218 2.5,-1.14639 2.5,-1.19231 2.5,-1.24052 2.5,-1.2858 2.5,-1.32498 2.5,-1.35807 2.5,-1.38507 2.5,-1.40863 2.5,-1.4362 2.5,-1.4685 2.5,-1.506 2.5,-1.5485 2.5,-1.5925 2.5,-1.637 2.5,-1.68275 2.5,-1.731 2.5,-1.781 2.5,-1.83225 2.5,-1.88325 2.5,-1.93525 2.5,-1.988 2.5,-2.04125 2.5,-2.10025 2.5,-2.1575 2.5,-2.2035 2.5,-2.23875 2.5,-2.263 2.5,-2.28275 2.5,-2.3185 2.5,-2.37575 2.5,-2.45375 2.5,-2.55325 2.5,-2.6635 2.5,-2.781 2.5,-2.9145 2.5,-3.06325 2.5,-3.22825 2.5,-3.41025 2.5,-3.597 2.5,-3.78025 2.5,-3.96 2.5,-4.1355 2.5,-4.29925 2.5,-4.484 2.5,-4.71525 2.5,-4.99325 2.5,-5.31775 2.5,-5.675 2.5,-5.989 2.5,-6.237 2.5,-6.41925 2.5,-6.535 2.5,-6.6065 2.5,-6.688 2.5,-6.78675 2.5,-6.90225 2.5,-7.03475 2.5,-7.16175 2.5,-7.237 2.5,-7.25875 2.5,-7.22825 2.5,-7.14475 2.5,-7.0415 2.5,-6.904 2.5,-6.692 2.5,-6.4045 2.5,-6.0425 2.5,-5.625 2.5,-5.2275 2.5,-4.885 2.5,-4.59 2.5,-4.345 2.5,-4.1225 2.5,-3.875 2.5,-3.62 2.5,-3.355 2.5,-3.08 2.5,-2.8025 2.5,-2.535 2.5,-2.285 2.5,-2.0425 2.5,-1.8175 2.5,-1.595 2.5,-1.3725 2.5,-1.1525 2.5,-0.93 2.5,-0.7075 2.5,-0.485 2.5,-0.2725 2.5,-0.06 2.5,0.1475 2.5,0.3525 2.5,0.555 2.5,0.755 2.5,0.9425 2.5,1.115 2.5,1.28 2.5,1.4475 2.5,1.615 2.5,1.7825 2.5,1.9475 2.5,2.115 2.5,2.285 2.5,2.4625 2.5,2.6375 2.5,2.82 2.5,3.0075 2.5,3.2 2.5,3.38 2.5,3.55 2.5,3.7125 2.5,3.8675 2.5,4.0175 2.5,4.1625 2.5,4.3075 2.5,4.4525 2.5,4.5925 2.5,4.7325 2.5,4.85925 2.5,4.981 2.5,5.093 2.5,5.1955 2.5,5.2895 2.5,5.3775 2.5,5.46175 2.5,5.54125 2.5,5.6165 2.5,5.686 2.5,5.743 2.5,5.78575 2.5,5.81475 2.5,5.8295 2.5,5.833 2.5,5.82625 2.5,5.8085 2.5,5.7785 2.5,5.73775 2.5,5.68825 2.5,5.6275 2.5,5.55075 2.5,5.458 2.5,5.34925 2.5,5.22525 2.5,5.102 2.5,4.9845 2.5,4.873 2.5,4.7675 2.5,4.66425 2.5,4.54975 2.5,4.422 2.5,4.281 2.5,4.12675 2.5,3.96525 2.5,3.80725 2.5,3.653 2.5,3.5025 2.5,3.3555 2.5,3.2095 2.5,3.0645 2.5,2.92175 2.5,2.78225 2.5,2.64525 2.5,2.51 2.5,2.37925 2.5,2.256 2.5,2.1395 2.5,2.0305 2.5,1.9265 2.5,1.8249 2.5,1.7243 2.5,1.62522 2.5,1.52753 2.5,1.4326 2.5,1.3422 2.5,1.25583 2.5,1.1735 2.5,1.09515 2.5,1.02017 2.5,0.9488 2.5,0.8819 2.5,0.81945 2.5,0.7615 2.5,0.70728 2.5,0.6557 2.5,0.6069 2.5,0.56095 2.5,0.51777 2.5,0.47773 2.5,0.4399 2.5,0.40332 2.5,0.36808 2.5,0.3342 2.5,0.30182 2.5,0.27219 2.5,0.24558 2.5,0.22198 2.5,0.20141 2.5,0.18315 2.5,0.16601 2.5,0.15005 2.5,0.13523 2.5,0.12157 2.5,0.10936 2.5,0.0983 2.5,0.0879 2.5,0.0782 2.5,0.0691 2.5,0.0608 2.5,0.0535 2.5,0.0472 2.5,0.042 2.5,0.0377 2.5,0.0344 2.5,0.0312 2.5,0.0282 2.5,0.0251 2.5,0.0222 2.5,0.0194 2.5,0.0171 2.5,0.0151 2.5,0.0135 2.5,0.0122 2.5,0.0111 2.5,0.0101 2.5,0.009 2.5,0.008 2.5,0.007 2.5,0.007 2.5,0.006 2.5,0.005 2.5,0.005 2.5,0.004 2.5,0.003 2.5,0.002 2.5,0.002 2.5,0.001 2.5,10e-4 2.5,10e-4 2.5,8.5e-4 2.5,6.9e-4 2.5,5.6e-4 2.5,4.5e-4 2.5,3.6e-4 2.5,3e-4 2.5,9e-5 2.5,5e-5 2.5,2e-5 2.5,1.8e-4 2.5,-10e-6 2.5,-1e-5 2.5,-10e-6 2.5,-10e-6 2.5,-10e-6 2.5,-10e-6 2.5,-1e-5 2.5,0 2.5,-10e-6 2.5,-10e-6 2.5,0 2.5,-10e-6 2.5,-1e-5 2.5,0 2.5,0 2.5,-10e-6 2.5,0 2.5,-10e-6 2.5,0 2.5,0 2.5,-10e-6 2.5,0 2.5,0 2.5,-10e-6 2.5,0 2.5,0 2.5,0 2.5,0 2.5,-1e-5 2.5,0 2.5,0 2.5,0 2.5,0 2.5,0 2.5,0 2.5,-10e-6 2.5,0 2.5,0 2.5,0 2.5,0 2.5,0 2.5,0 2.5,0 2.5,0 2.5,0 2.5,0 2.5,0 2.5,0 2.5,0 2.5,0 2.5,-10e-6 2.5,0 2.5,0 2.5,0 2.5,0 2.5,0 2.5,0 2.5,0 2.5,0 2.5,0 2.5,0 2.5,0 2.5,0 2.5,0 2.5,0 2.5,0 2.5,0 2.5,0 2.5,0 2.5,0 2.5,0 2.5,0 2.5,0 2.5,0 2.5,0 2.5,0 2.5,0 2.5,0 2.5,0 2.5,0 2.5,0 2.5,0 2.5,0 2.5,0 2.5,0 2.5,0 2.5,0 2.5,0 2.5,0 2.5,0 2.5,0 2.5,0 2.5,0 2.5,0 2.5,0 2.5,0 2.5,0 2.5,0 2.5,0 2.5,0 2.5,0 2.5,0 2.5,0 2.5,0 2.5,0 2.5,0 2.5,0 2.5,0 2.5,0 2.5,0 2.5,0 2.5,0 2.5,0 2.5,0 2.5,0 2.5,0 2.5,0 2.5,0 2.5,0 2.5,0 2.5,0 2.5,0 2.5,0 2.5,0 2.5,0 2.5,0 2.5,0 2.5,0 2.5,0" />
  <path
     style="fill:none;stroke:#0000ff;stroke-width:3.75"
     inkscape:connector-curvature="0"
     id="path17"
     d="m 141.0818,608.2359 2.5,-0.02 2.5,-0.0226 2.5,-0.0254 2.5,-0.0286 2.5,-0.032 2.5,-0.0361 2.5,-0.0408 2.5,-0.0458 2.5,-0.0511 2.5,-0.0568 2.5,-0.0622 2.5,-0.0692 2.5,-0.0794 2.5,-0.0928 2.5,-0.1094 2.5,-0.13119 2.5,-0.15169 2.5,-0.16558 2.5,-0.17286 2.5,-0.17353 2.5,-0.1698 2.5,-0.1776 2.5,-0.20265 2.5,-0.24494 2.5,-0.30449 2.5,-0.37968 2.5,-0.45322 2.5,-0.51815 2.5,-0.57443 2.5,-0.62212 2.5,-0.66006 2.5,-0.72177 2.5,-0.8251 2.5,-0.97005 2.5,-1.15658 2.5,-1.40192 2.5,-1.6267 2.5,-1.77423 2.5,-1.84449 2.5,-1.83748 2.5,-1.77965 2.5,-1.8437 2.5,-2.08958 2.5,-2.51717 2.5,-3.12675 2.5,-3.86525 2.5,-4.5825 2.5,-5.2565 2.5,-5.887 2.5,-6.47425 2.5,-7.05075 2.5,-7.755 2.5,-8.625 2.5,-9.66025 2.5,-10.861 2.5,-12.043 2.5,-13.20825 2.5,-14.5425 2.5,-16.04525 2.5,-17.717 2.5,-19.544 2.5,-20.9775 2.5,-21.7555 2.5,-21.88 2.5,-21.345 2.5,-20.465 2.5,-19.6075 2.5,-18.67 2.5,-17.6425 2.5,-16.535 2.5,-15.2925 2.5,-13.985 2.5,-12.7025 2.5,-11.4425 2.5,-10.2075 2.5,-8.9625 2.5,-7.7425 2.5,-6.585 2.5,-5.495 2.5,-4.465 2.5,-3.475 2.5,-2.5625 2.5,-1.7725 2.5,-1.1125 2.5,-0.5725 2.5,-0.09 2.5,0.3475 2.5,0.68 2.5,0.9025 2.5,1.0175 2.5,1.0425 2.5,1.1425 2.5,1.3775 2.5,1.75 2.5,2.255 2.5,2.8375 2.5,3.42 2.5,4.0125 2.5,4.6275 2.5,5.2525 2.5,5.825 2.5,6.48 2.5,7.36 2.5,8.46 2.5,9.7825 2.5,11.275 2.5,12.51 2.5,13.3275 2.5,13.73 2.5,13.72 2.5,13.4825 2.5,13.3175 2.5,13.175 2.5,13.055 2.5,12.9575 2.5,12.8125 2.5,12.585 2.5,12.32775 2.5,12.04425 2.5,11.732 2.5,11.401 2.5,11.0365 2.5,10.62375 2.5,10.1625 2.5,9.65325 2.5,9.109 2.5,8.585 2.5,8.09475 2.5,7.638 2.5,7.21525 2.5,6.80625 2.5,6.40225 2.5,6.018 2.5,5.65375 2.5,5.3095 2.5,4.9885 2.5,4.6855 2.5,4.3955 2.5,4.11775 2.5,3.85275 2.5,3.59225 2.5,3.3675 2.5,3.20325 2.5,3.09975 2.5,3.05675 2.5,3.05125 2.5,3.03025 2.5,2.98975 2.5,2.92925 2.5,2.84925 2.5,2.77025 2.5,2.69075 2.5,2.58875 2.5,2.46475 2.5,2.31775 2.5,2.16125 2.5,2.01037 2.5,1.86003 2.5,1.71035 2.5,1.56135 2.5,1.40847 2.5,1.2677 2.5,1.15145 2.5,1.0598 2.5,0.99265 2.5,0.93875 2.5,0.88583 2.5,0.83935 2.5,0.79917 2.5,0.76543 2.5,0.7396 2.5,0.71517 2.5,0.68733 2.5,0.65602 2.5,0.6213 2.5,0.58675 2.5,0.5548 2.5,0.52305 2.5,0.49148 2.5,0.4601 2.5,0.42909 2.5,0.39897 2.5,0.36976 2.5,0.34147 2.5,0.31407 2.5,0.28739 0.25,0.0499 2.25,0.212 2.5,0.23824 2.5,0.21627 2.5,0.19604 2.5,0.17703 2.5,0.15894 2.5,0.14187 2.5,0.12582 2.5,0.11078 2.5,0.0966 2.5,0.0834 2.5,0.0714 2.5,0.0605 2.5,0.0507 2.5,0.0419 2.5,0.0336 2.5,0.0256 2.5,0.0179 2.5,0.0105 2.5,0.004 2.5,-0.003 2.5,-0.009 2.5,-0.0148 2.5,-0.0204 2.5,-0.0257 2.5,-0.0304 2.5,-0.0347 2.5,-0.0383 2.5,-0.0415 2.5,-0.0444 2.5,-0.0467 2.5,-0.048 2.5,-0.0484 2.5,-0.0479 2.5,-0.0467 2.5,-0.0457 2.5,-0.0448 2.5,-0.044 2.5,-0.0432 2.5,-0.0419 2.5,-0.041 2.5,-0.0412 2.5,-0.0427 2.5,-0.0454 2.5,-0.0491 2.5,-0.0516 2.5,-0.0524 2.5,-0.0513 2.5,-0.0483 2.5,-0.0444 2.5,-0.0412 2.5,-0.0388 2.5,-0.0373 2.5,-0.0367 2.5,-0.0366 2.5,-0.036 2.5,-0.0346 2.5,-0.0324 2.5,-0.0295 2.5,-0.0261 2.5,-0.0234 2.5,-0.0218 2.5,-0.0214 2.5,-0.0222 2.5,-0.0236 2.5,-0.0245 2.5,-0.0248 2.5,-0.0245 2.5,-0.0236 2.5,-0.0226 2.5,-0.0216 2.5,-0.0205 2.5,-0.019 2.5,-0.0173 2.5,-0.0152 2.5,-0.0135 2.5,-0.0121 2.5,-0.0113 2.5,-0.0109 2.5,-0.0108 2.5,-0.0105 2.5,-0.0101 2.5,-0.01 2.5,-0.009 2.5,-0.009 2.5,-0.008 2.5,-0.008 2.5,-0.007 2.5,-0.007 2.5,-0.007 2.5,-0.006 2.5,-0.006 2.5,-0.005 2.5,-0.005 2.5,-0.004 2.5,-0.004 2.5,-0.004 2.5,-0.003 2.5,-0.003 2.5,-0.002 2.5,-0.002 2.5,-0.002 2.5,-0.002 2.5,-0.002 2.5,-0.002 2.5,-0.002 2.5,-0.002 2.5,-10e-4 2.5,-10e-4 2.5,-10e-4 2.5,-9.9e-4 2.5,-8.9e-4 2.5,-7.9e-4 2.5,-7e-4 2.5,-6.1e-4 2.5,-5.4e-4 2.5,-4.8e-4 2.5,-4.2e-4 2.5,-3.8e-4 2.5,-3.5e-4 2.5,-3.2e-4 2.5,-2.8e-4 2.5,-2.5e-4 2.5,-2.3e-4 2.5,-2e-4 2.5,-1.7e-4 2.5,-1.5e-4 2.5,-1.4e-4 2.5,-1.2e-4 2.5,-1.1e-4 2.5,-10e-5 2.5,-10e-5 2.5,-8e-5 2.5,-8e-5 2.5,-6e-5 2.5,-7e-5 2.5,-5e-5 2.5,-5e-5 2.5,-4e-5 2.5,-3e-5 2.5,-2e-5 2.5,-2e-5 2.5,-10e-6 2.5,-2e-5 2.5,-10e-6 2.5,0 2.5,-10e-6 2.5,-1e-5 2.5,0 2.5,-10e-6 2.5,0 2.5,0 330,0" />
  <path
     id="rect19"
     transform="scale(1,-1)"
     style="fill:none;stroke:#000000;stroke-width:3.75"
     d="m 141.0818,-8.3984375 0,-750.0000025 1175,0"
     inkscape:connector-curvature="0"
     sodipodi:nodetypes="ccc" />
  <text
     x="26.615494"
     y="33.398438"
     font-size="45px"
     id="text35"
     style="font-size:45px;font-family:serif">0.40</text>
  <text
     x="26.615494"
     y="174.39844"
     font-size="45px"
     id="text37"
     style="font-size:45px;font-family:serif">0.30</text>
  <text
     x="26.615494"
     y="324.39844"
     font-size="45px"
     id="text39"
     style="font-size:45px;font-family:serif">0.20</text>
  <text
     x="26.615494"
     y="474.39844"
     font-size="45px"
     id="text41"
     style="font-size:45px;font-family:serif">0.10</text>
  <text
     x="26.615494"
     y="623.7522"
     font-size="45px"
     id="text43"
     style="font-size:45px;font-family:serif">0.00</text>
  <text
     x="-4.7680664"
     y="779.72461"
     font-size="45px"
     id="text45"
     style="font-size:45px;font-family:serif">−0.10</text>
  <text
     x="198.08153"
     y="803.39844"
     font-size="45px"
     id="text47"
     style="font-size:45px;font-family:serif">400</text>
  <text
     x="457.08179"
     y="803.39844"
     font-size="45px"
     id="text49"
     style="font-size:45px;font-family:serif">500</text>
  <text
     x="707.08179"
     y="803.39844"
     font-size="45px"
     id="text53"
     style="font-size:45px;font-family:serif">600</text>
  <text
     x="957.08179"
     y="803.39844"
     font-size="45px"
     id="text55"
     style="font-size:45px;font-family:serif">700</text>
  <text
     x="1207.0818"
     y="803.39844"
     font-size="45px"
     id="text57"
     style="font-size:45px;font-family:serif">800</text>
  <g
     id="g3742"
     transform="matrix(2.952342,0,0,2.952342,240.76302,336.89453)">
    <g
       word-spacing="normal"
       letter-spacing="normal"
       font-size-adjust="none"
       font-stretch="normal"
       font-weight="normal"
       font-variant="normal"
       font-style="normal"
       stroke-miterlimit="10.433"
       xml:space="preserve"
       transform="matrix(0.38714286,0,0,-0.38714286,-67.75,334.5)"
       id="content"
       style="font-style:normal;font-variant:normal;font-weight:normal;font-stretch:normal;letter-spacing:normal;word-spacing:normal;text-anchor:start;fill:none;stroke:#000000;stroke-linecap:butt;stroke-linejoin:miter;stroke-miterlimit:10.43299961;stroke-opacity:1;stroke-dasharray:none;stroke-dashoffset:0"><path
         id="path3745"
         d="m 473.3,420.75 0.19,-0.5 0.2,-0.51 0.39,-1.05 0.4,-1.08 0.39,-1.1 0.39,-1.1 0.39,-1.09 0.37,-1.07 0.19,-0.53 0.18,-0.51 0.17,-0.5 0.18,-0.49 0.16,-0.47 0.17,-0.45 0.16,-0.44 0.15,-0.42 0.15,-0.39 0.14,-0.37 0.13,-0.35 0.13,-0.32 0.12,-0.29 0.12,-0.26 0.1,-0.23 0.1,-0.2 0.09,-0.16 0.08,-0.12 c 0.79,-1.1 1.29,-1.1 2.64,-1.1 h 1.09 c 0.5,0.05 0.55,0.35 0.55,0.5 0,0.14 -0.1,0.25 -0.25,0.46 -0.49,0.54 -0.8,1.28 -1.14,2.28 l -10.16,28.34 c -1.05,2.89 -3.75,3.55 -6.08,3.55 -0.25,0 -0.9,0 -0.9,-0.55 0,-0.41 0.4,-0.5 0.45,-0.5 1.64,-0.3 1.98,-0.59 3.23,-3.98 l 4.83,-13.55 -13.75,-13.66 c -0.59,-0.59 -0.89,-0.9 -0.89,-1.54 0,-0.85 0.7,-1.44 1.5,-1.44 0.8,0 1.23,0.55 1.64,1.05 z"
         inkscape:connector-curvature="0"
         style="fill:#000000;stroke-width:0" /><path
         id="path3747"
         d="m 506.43,441.67 0.02,0.03 0.01,0.03 0.01,0.03 0.01,0.03 0.01,0.02 0.01,0.03 0.01,0.03 0.01,0.02 0.01,0.05 0.02,0.05 0.01,0.04 0.02,0.05 0.01,0.04 0.01,0.04 0.01,0.03 0.01,0.04 0.01,0.03 0.01,0.03 0.01,0.03 0,0.02 0.01,0.03 0,0.02 0.01,0.02 0,0.02 0,0.02 0.01,0.02 0,0.01 0,0.02 0,0.01 0,0.01 0,0.01 0,0.01 0,0.01 0,0.01 0,0.01 0,0 c 0,0.55 -0.45,0.99 -1,0.99 -0.34,0 -0.7,-0.14 -0.84,-0.44 l -17.3,-47.48 c -0.25,-0.64 -0.25,-0.85 -0.25,-0.89 0,-0.55 0.46,-1 1,-1 0.66,0 0.8,0.34 1.1,1.18 z"
         inkscape:connector-curvature="0"
         style="fill:#000000;stroke-width:0" /><path
         id="path3749"
         d="m 513.91,409.14 -0.02,-0.07 -0.01,-0.08 -0.02,-0.07 -0.02,-0.08 -0.03,-0.16 -0.04,-0.16 -0.04,-0.16 -0.04,-0.16 -0.03,-0.16 -0.04,-0.16 -0.02,-0.08 -0.01,-0.07 -0.02,-0.07 -0.01,-0.07 -0.02,-0.07 -0.01,-0.07 -0.02,-0.06 -0.01,-0.06 -0.01,-0.06 -0.01,-0.05 -0.01,-0.05 0,-0.04 -0.01,-0.04 0,-0.04 -0.01,-0.03 0,-0.02 c 0,-0.89 0.71,-1.35 1.44,-1.35 0.61,0 1.5,0.39 1.84,1.39 0.07,0.11 0.66,2.44 0.96,3.69 l 1.09,4.48 c 0.3,1.1 0.6,2.19 0.84,3.35 0.21,0.84 0.61,2.28 0.66,2.48 0.75,1.55 3.39,6.08 8.11,6.08 2.25,0 2.7,-1.84 2.7,-3.48 0,-3.1 -2.45,-9.47 -3.25,-11.61 -0.43,-1.14 -0.48,-1.75 -0.48,-2.3 0,-2.33 1.73,-4.08 4.08,-4.08 4.68,0 6.53,7.27 6.53,7.67 0,0.5 -0.45,0.5 -0.61,0.5 -0.48,0 -0.48,-0.15 -0.74,-0.9 -1,-3.38 -2.64,-6.17 -5.09,-6.17 -0.84,0 -1.19,0.5 -1.19,1.64 0,1.25 0.46,2.45 0.89,3.54 0.96,2.64 3.05,8.11 3.05,10.96 0,3.34 -2.14,5.32 -5.73,5.32 -4.49,0 -6.93,-3.18 -7.77,-4.32 -0.25,2.79 -2.3,4.32 -4.59,4.32 -2.28,0 -3.24,-1.93 -3.74,-2.82 -0.79,-1.71 -1.5,-4.64 -1.5,-4.85 0,-0.5 0.5,-0.5 0.61,-0.5 0.5,0 0.55,0.07 0.85,1.16 0.84,3.53 1.84,5.92 3.64,5.92 0.98,0 1.54,-0.64 1.54,-2.28 0,-1.05 -0.15,-1.61 -0.79,-4.19 z"
         inkscape:connector-curvature="0"
         style="fill:#000000;stroke-width:0" /><path
         id="path3751"
         d="m 543.78,409.14 -0.01,-0.07 -0.02,-0.08 -0.01,-0.07 -0.02,-0.08 -0.03,-0.16 -0.04,-0.16 -0.04,-0.16 -0.04,-0.16 -0.03,-0.16 -0.04,-0.16 -0.02,-0.08 -0.01,-0.07 -0.02,-0.07 -0.02,-0.07 -0.01,-0.07 -0.01,-0.07 -0.02,-0.06 -0.01,-0.06 -0.01,-0.06 -0.01,-0.05 -0.01,-0.05 0,-0.04 -0.01,-0.04 0,-0.04 -0.01,-0.03 0,-0.02 c 0,-0.89 0.7,-1.35 1.44,-1.35 0.61,0 1.5,0.39 1.84,1.39 0.07,0.11 0.66,2.44 0.96,3.69 l 1.09,4.48 c 0.3,1.1 0.59,2.19 0.84,3.35 0.21,0.84 0.61,2.28 0.66,2.48 0.75,1.55 3.39,6.08 8.11,6.08 2.25,0 2.7,-1.84 2.7,-3.48 0,-1.25 -0.36,-2.64 -0.75,-4.14 l -1.39,-5.79 -1,-3.78 c -0.2,-1 -0.65,-2.68 -0.65,-2.93 0,-0.89 0.7,-1.35 1.45,-1.35 1.55,0 1.84,1.25 2.23,2.85 0.71,2.78 2.55,10.06 3,12 0.14,0.65 2.79,6.62 8.22,6.62 2.14,0 2.69,-1.69 2.69,-3.48 0,-2.85 -2.09,-8.52 -3.09,-11.16 -0.46,-1.2 -0.65,-1.75 -0.65,-2.75 0,-2.33 1.74,-4.08 4.08,-4.08 4.69,0 6.54,7.27 6.54,7.67 0,0.5 -0.46,0.5 -0.6,0.5 -0.5,0 -0.5,-0.15 -0.75,-0.9 -0.75,-2.64 -2.34,-6.17 -5.08,-6.17 -0.86,0 -1.2,0.5 -1.2,1.64 0,1.25 0.45,2.45 0.89,3.54 0.95,2.58 3.05,8.11 3.05,10.96 0,3.23 -2,5.32 -5.74,5.32 -3.73,0 -6.26,-2.18 -8.11,-4.82 -0.06,0.65 -0.2,2.34 -1.61,3.53 -1.23,1.04 -2.82,1.29 -4.07,1.29 -4.49,0 -6.93,-3.18 -7.77,-4.32 -0.25,2.84 -2.34,4.32 -4.59,4.32 -2.29,0 -3.24,-1.93 -3.69,-2.82 -0.89,-1.75 -1.55,-4.69 -1.55,-4.85 0,-0.5 0.5,-0.5 0.61,-0.5 0.5,0 0.55,0.07 0.84,1.16 0.85,3.53 1.85,5.92 3.65,5.92 0.79,0 1.54,-0.39 1.54,-2.28 0,-1.05 -0.15,-1.61 -0.79,-4.19 z"
         inkscape:connector-curvature="0"
         style="fill:#000000;stroke-width:0" /></g>  </g>
  <line
     x1="1052.082"
     y1="53.398743"
     x2="1182.082"
     y2="53.398743"
     id="line29"
     style="stroke:#ff0000;stroke-width:3.75" />
  <line
     x1="1052.082"
     y1="113.39874"
     x2="1182.082"
     y2="113.39874"
     id="line31"
     style="stroke:#00ff00;stroke-width:3.75" />
  <line
     x1="1052.082"
     y1="173.39874"
     x2="1182.082"
     y2="173.39874"
     id="line33"
     style="stroke:#0000ff;stroke-width:3.75" />
  <g
     id="g3533"
     transform="translate(337.7482,-308.30935)">
    <polygon
       transform="matrix(1.2,0,0,-1.2,320.99381,861.23003)"
       style="font-style:normal;font-variant:normal;font-weight:normal;font-stretch:normal;letter-spacing:normal;word-spacing:normal;text-anchor:start;fill:#000000;stroke:#000000;stroke-width:0;stroke-linecap:butt;stroke-linejoin:miter;stroke-miterlimit:10.43299961;stroke-opacity:1;stroke-dasharray:none;stroke-dashoffset:0"
       points="461.24,434.04 479.22,434.04 479.22,435.59 461.24,435.59 "
       id="polygon3407" />
    <path
       style="font-style:normal;font-variant:normal;font-weight:normal;font-stretch:normal;letter-spacing:normal;word-spacing:normal;text-anchor:start;fill:#000000;stroke:#000000;stroke-width:0;stroke-linecap:butt;stroke-linejoin:miter;stroke-miterlimit:10.43299961;stroke-opacity:1;stroke-dasharray:none;stroke-dashoffset:0"
       inkscape:connector-curvature="0"
       d="m 872.88581,370.26203 -0.024,0.084 -0.012,0.096 -0.024,0.084 -0.024,0.096 -0.036,0.192 -0.048,0.192 -0.048,0.192 -0.048,0.192 -0.036,0.192 -0.048,0.192 -0.024,0.096 -0.012,0.084 -0.024,0.084 -0.012,0.084 -0.024,0.084 -0.012,0.084 -0.024,0.072 -0.012,0.072 -0.012,0.072 -0.012,0.06 -0.012,0.06 0,0.048 -0.012,0.048 0,0.048 -0.012,0.036 0,0.024 c 0,1.068 0.852,1.62 1.728,1.62 0.732,0 1.8,-0.468 2.208,-1.668 0.132,-0.252 2.16,-8.388 2.4,-9.456 0.468,-1.968 1.56,-6.144 1.92,-7.776 0.24,-0.768 1.908,-3.588 3.336,-4.896 0.492,-0.408 2.208,-1.968 4.8,-1.968 1.536,0 2.436,0.708 2.496,0.708 -1.788,0.3 -3.096,1.752 -3.096,3.288 0,0.948 0.66,2.1 2.268,2.1 1.608,0 3.276,-1.368 3.276,-3.528 0,-2.1 -1.908,-3.876 -4.944,-3.876 -3.9,0 -6.528,2.916 -7.668,4.584 -0.468,-2.676 -2.628,-4.584 -5.436,-4.584 -2.736,0 -3.888,2.316 -4.428,3.384 -1.068,2.052 -1.86,5.628 -1.86,5.82 0,0.6 0.6,0.6 0.732,0.6 0.6,0 0.66,-0.084 1.02,-1.392 1.008,-4.236 2.208,-7.104 4.368,-7.104 1.008,0 1.848,0.468 1.848,2.736 0,1.26 -0.18,1.932 -0.948,5.028 z"
       id="path3409" />
    <path
       style="font-style:normal;font-variant:normal;font-weight:normal;font-stretch:normal;letter-spacing:normal;word-spacing:normal;text-anchor:start;fill:#000000;stroke:#000000;stroke-width:0;stroke-linecap:butt;stroke-linejoin:miter;stroke-miterlimit:10.43299961;stroke-opacity:1;stroke-dasharray:none;stroke-dashoffset:0"
       inkscape:connector-curvature="0"
       d="m 916.04981,388.13003 0,-0.024 0,-0.036 0,-0.012 -0.012,-0.024 0,-0.012 0,-0.024 -0.012,-0.012 -0.012,-0.024 -0.012,-0.024 -0.012,-0.024 -0.012,-0.024 -0.012,-0.036 -0.024,-0.024 -0.024,-0.036 -0.024,-0.036 -0.024,-0.036 -0.036,-0.036 -0.036,-0.048 -0.012,-0.024 -0.024,-0.024 -0.024,-0.024 -0.024,-0.024 -0.012,-0.024 -0.024,-0.036 -0.036,-0.024 -0.024,-0.024 -0.024,-0.036 -0.024,-0.024 -0.036,-0.036 -0.024,-0.036 -0.036,-0.036 -0.036,-0.036 -0.036,-0.036 -0.036,-0.036 -0.036,-0.036 -0.036,-0.036 -0.036,-0.048 -0.048,-0.036 -0.036,-0.048 -0.048,-0.036 -0.048,-0.048 -0.036,-0.048 c -7.464,-7.536 -9.384,-18.828 -9.384,-27.972 0,-10.404 2.268,-20.82 9.624,-28.272 0.768,-0.732 0.768,-0.852 0.768,-1.032 0,-0.42 -0.228,-0.588 -0.588,-0.588 -0.6,0 -5.976,4.056 -9.504,11.64 -3.048,6.588 -3.768,13.224 -3.768,18.252 0,4.668 0.66,11.88 3.936,18.648 3.588,7.356 8.736,11.232 9.336,11.232 0.36,0 0.588,-0.168 0.588,-0.6 z"
       id="path3411" />
    <path
       style="font-style:normal;font-variant:normal;font-weight:normal;font-stretch:normal;letter-spacing:normal;word-spacing:normal;text-anchor:start;fill:#000000;stroke:#000000;stroke-width:0;stroke-linecap:butt;stroke-linejoin:miter;stroke-miterlimit:10.43299961;stroke-opacity:1;stroke-dasharray:none;stroke-dashoffset:0"
       inkscape:connector-curvature="0"
       d="m 940.78181,356.33003 0.228,0.6 0.24,0.612 0.468,1.26 0.48,1.296 0.468,1.32 0.468,1.32 0.468,1.308 0.444,1.284 0.228,0.636 0.216,0.612 0.216,0.6 0.204,0.588 0.204,0.564 0.192,0.54 0.192,0.528 0.18,0.504 0.18,0.468 0.168,0.444 0.168,0.42 0.144,0.384 0.144,0.348 0.144,0.312 0.12,0.276 0.12,0.24 0.108,0.192 0.096,0.144 c 0.948,1.32 1.548,1.32 3.168,1.32 h 1.308 c 0.6,-0.06 0.66,-0.42 0.66,-0.6 0,-0.168 -0.12,-0.3 -0.3,-0.552 -0.588,-0.648 -0.96,-1.536 -1.368,-2.736 l -12.192,-34.008 c -1.26,-3.468 -4.5,-4.26 -7.296,-4.26 -0.3,0 -1.08,0 -1.08,0.66 0,0.492 0.48,0.6 0.54,0.6 1.968,0.36 2.376,0.708 3.876,4.776 l 5.796,16.26 -16.5,16.392 c -0.708,0.708 -1.068,1.08 -1.068,1.848 0,1.02 0.84,1.728 1.8,1.728 0.96,0 1.488,-0.66 1.968,-1.26 z"
       id="path3413" />
    <path
       style="font-style:normal;font-variant:normal;font-weight:normal;font-stretch:normal;letter-spacing:normal;word-spacing:normal;text-anchor:start;fill:#000000;stroke:#000000;stroke-width:0;stroke-linecap:butt;stroke-linejoin:miter;stroke-miterlimit:10.43299961;stroke-opacity:1;stroke-dasharray:none;stroke-dashoffset:0"
       inkscape:connector-curvature="0"
       d="m 971.56181,358.85003 0,-0.444 -0.012,-0.468 0,-0.468 -0.024,-0.492 -0.048,-1.008 -0.072,-1.056 -0.096,-1.104 -0.132,-1.14 -0.156,-1.164 -0.192,-1.212 -0.24,-1.224 -0.276,-1.236 -0.324,-1.26 -0.36,-1.272 -0.42,-1.284 -0.468,-1.284 -0.264,-0.636 -0.264,-0.636 -0.288,-0.636 -0.3,-0.636 c -3.576,-7.344 -8.724,-11.232 -9.324,-11.232 -0.348,0 -0.6,0.228 -0.6,0.588 0,0.18 0,0.3 1.128,1.38 5.868,5.904 9.288,15.42 9.288,27.924 0,10.212 -2.22,20.736 -9.648,28.272 -0.768,0.708 -0.768,0.84 -0.768,1.008 0,0.36 0.252,0.6 0.6,0.6 0.6,0 5.964,-4.068 9.516,-11.652 3.036,-6.564 3.744,-13.2 3.744,-18.228 z"
       id="path3415" />
  </g>
  <g
     id="g3540"
     transform="translate(208.5562,-246.16205)">
    <polygon
       transform="matrix(1.2,0,0,-1.2,320.99381,861.23003)"
       style="font-style:normal;font-variant:normal;font-weight:normal;font-stretch:normal;letter-spacing:normal;word-spacing:normal;text-anchor:start;fill:#000000;stroke:#000000;stroke-width:0;stroke-linecap:butt;stroke-linejoin:miter;stroke-miterlimit:10.43299961;stroke-opacity:1;stroke-dasharray:none;stroke-dashoffset:0"
       points="568.98,435.59 568.98,434.04 586.97,434.04 586.97,435.59 "
       id="polygon3417" />
    <path
       style="font-style:normal;font-variant:normal;font-weight:normal;font-stretch:normal;letter-spacing:normal;word-spacing:normal;text-anchor:start;fill:#000000;stroke:#000000;stroke-width:0;stroke-linecap:butt;stroke-linejoin:miter;stroke-miterlimit:10.43299961;stroke-opacity:1;stroke-dasharray:none;stroke-dashoffset:0"
       inkscape:connector-curvature="0"
       d="m 1025.7898,351.25403 0.012,-0.072 0.012,-0.06 0.012,-0.06 0.012,-0.072 0.036,-0.12 0.012,-0.06 0.012,-0.072 0.012,-0.06 0.012,-0.072 0.012,-0.06 0.012,-0.072 0,-0.072 0.012,-0.072 0,-0.036 0,-0.036 0,-0.036 0,-0.036 c 0,-1.032 -0.708,-1.632 -1.728,-1.632 -0.6,0 -2.208,0.432 -2.448,2.592 -1.068,-2.22 -3.168,-3.768 -5.556,-3.768 l 0.06,1.308 c 3.936,0 4.788,4.836 4.788,5.136 0,0.3 -0.12,0.66 -0.192,0.9 l -2.868,11.424 c -0.36,1.548 -1.728,3.036 -3.036,4.176 -1.26,1.068 -3.12,2.16 -4.86,2.16 -2.988,0 -3.888,-3.12 -3.888,-5.496 0,-2.892 1.752,-9.936 3.36,-12.972 1.62,-2.952 4.188,-5.328 6.696,-5.328 l -0.06,-1.308 c -6.816,0 -14.232,8.352 -14.232,16.968 0,5.916 3.636,9.444 7.956,9.444 3.528,0 6.336,-2.808 6.936,-3.468 l 0.06,0.06 c -1.26,5.316 -1.968,7.776 -1.968,7.896 -0.252,0.54 -2.268,6.468 -8.604,6.468 -1.152,0 -3.12,-0.084 -4.8,-0.6 1.8,-0.552 2.448,-2.1 2.448,-3.12 0,-0.948 -0.648,-2.1 -2.268,-2.1 -1.308,0 -3.22799,1.092 -3.22799,3.468 0,2.46 2.21999,3.66 7.95599,3.66 7.464,0 11.772,-4.668 12.672,-8.256 z"
       id="path3419" />
    <path
       style="font-style:normal;font-variant:normal;font-weight:normal;font-stretch:normal;letter-spacing:normal;word-spacing:normal;text-anchor:start;fill:#000000;stroke:#000000;stroke-width:0;stroke-linecap:butt;stroke-linejoin:miter;stroke-miterlimit:10.43299961;stroke-opacity:1;stroke-dasharray:none;stroke-dashoffset:0"
       inkscape:connector-curvature="0"
       d="m 1047.9298,388.13003 0,-0.024 0,-0.036 0,-0.012 0,-0.024 0,-0.012 -0.012,-0.024 0,-0.012 -0.012,-0.024 -0.012,-0.024 -0.012,-0.024 -0.012,-0.024 -0.024,-0.036 -0.012,-0.024 -0.024,-0.036 -0.024,-0.036 -0.036,-0.036 -0.024,-0.036 -0.036,-0.048 -0.024,-0.024 -0.012,-0.024 -0.024,-0.024 -0.024,-0.024 -0.024,-0.024 -0.024,-0.036 -0.024,-0.024 -0.024,-0.024 -0.024,-0.036 -0.036,-0.024 -0.024,-0.036 -0.036,-0.036 -0.024,-0.036 -0.036,-0.036 -0.036,-0.036 -0.036,-0.036 -0.036,-0.036 -0.036,-0.036 -0.048,-0.048 -0.036,-0.036 -0.048,-0.048 -0.036,-0.036 -0.048,-0.048 -0.048,-0.048 c -7.464,-7.536 -9.372,-18.828 -9.372,-27.972 0,-10.404 2.268,-20.82 9.624,-28.272 0.756,-0.732 0.756,-0.852 0.756,-1.032 0,-0.42 -0.216,-0.588 -0.576,-0.588 -0.6,0 -5.976,4.056 -9.504,11.64 -3.06,6.588 -3.768,13.224 -3.768,18.252 0,4.668 0.648,11.88 3.936,18.648 3.576,7.356 8.736,11.232 9.336,11.232 0.36,0 0.576,-0.168 0.576,-0.6 z"
       id="path3421" />
    <path
       style="font-style:normal;font-variant:normal;font-weight:normal;font-stretch:normal;letter-spacing:normal;word-spacing:normal;text-anchor:start;fill:#000000;stroke:#000000;stroke-width:0;stroke-linecap:butt;stroke-linejoin:miter;stroke-miterlimit:10.43299961;stroke-opacity:1;stroke-dasharray:none;stroke-dashoffset:0"
       inkscape:connector-curvature="0"
       d="m 1072.6738,356.33003 0.228,0.6 0.24,0.612 0.468,1.26 0.468,1.296 0.48,1.32 0.468,1.32 0.456,1.308 0.456,1.284 0.216,0.636 0.216,0.612 0.216,0.6 0.204,0.588 0.204,0.564 0.204,0.54 0.18,0.528 0.192,0.504 0.18,0.468 0.168,0.444 0.156,0.42 0.156,0.384 0.144,0.348 0.132,0.312 0.132,0.276 0.12,0.24 0.096,0.192 0.096,0.144 c 0.96,1.32 1.56,1.32 3.168,1.32 h 1.32 c 0.6,-0.06 0.648,-0.42 0.648,-0.6 0,-0.168 -0.108,-0.3 -0.3,-0.552 -0.576,-0.648 -0.948,-1.536 -1.368,-2.736 l -12.18,-34.008 c -1.26,-3.468 -4.5,-4.26 -7.296,-4.26 -0.3,0 -1.092,0 -1.092,0.66 0,0.492 0.492,0.6 0.552,0.6 1.968,0.36 2.376,0.708 3.876,4.776 l 5.796,16.26 -16.5,16.392 c -0.72,0.708 -1.068,1.08 -1.068,1.848 0,1.02 0.84,1.728 1.8,1.728 0.948,0 1.476,-0.66 1.968,-1.26 z"
       id="path3423" />
    <path
       style="font-style:normal;font-variant:normal;font-weight:normal;font-stretch:normal;letter-spacing:normal;word-spacing:normal;text-anchor:start;fill:#000000;stroke:#000000;stroke-width:0;stroke-linecap:butt;stroke-linejoin:miter;stroke-miterlimit:10.43299961;stroke-opacity:1;stroke-dasharray:none;stroke-dashoffset:0"
       inkscape:connector-curvature="0"
       d="m 1103.4538,358.85003 0,-0.444 -0.012,-0.468 -0.012,-0.468 -0.012,-0.492 -0.048,-1.008 -0.072,-1.056 -0.096,-1.104 -0.132,-1.14 -0.156,-1.164 -0.204,-1.212 -0.228,-1.224 -0.276,-1.236 -0.324,-1.26 -0.372,-1.272 -0.42,-1.284 -0.468,-1.284 -0.252,-0.636 -0.276,-0.636 -0.276,-0.636 -0.3,-0.636 c -3.588,-7.344 -8.724,-11.232 -9.324,-11.232 -0.36,0 -0.6,0.228 -0.6,0.588 0,0.18 0,0.3 1.128,1.38 5.868,5.904 9.276,15.42 9.276,27.924 0,10.212 -2.208,20.736 -9.636,28.272 -0.768,0.708 -0.768,0.84 -0.768,1.008 0,0.36 0.24,0.6 0.6,0.6 0.6,0 5.964,-4.068 9.504,-11.652 3.036,-6.564 3.756,-13.2 3.756,-18.228 z"
       id="path3425" />
  </g>
  <polygon
     id="polygon3427"
     points="693.42,447.12 693.42,448.67 675.44,448.67 675.44,447.12 "
     style="font-style:normal;font-variant:normal;font-weight:normal;font-stretch:normal;letter-spacing:normal;word-spacing:normal;text-anchor:start;fill:#000000;stroke:#000000;stroke-width:0;stroke-linecap:butt;stroke-linejoin:miter;stroke-miterlimit:10.43299961;stroke-opacity:1;stroke-dasharray:none;stroke-dashoffset:0"
     transform="matrix(1.2,0,0,-1.2,396.55401,690.46728)" />
  <path
     id="path3429"
     d="m 1219.406,162.19127 0,0 0,-0.012 0,0 0,-0.012 0,-0.024 -0.012,-0.012 0,-0.024 0,-0.024 0,-0.024 -0.012,-0.024 0,-0.024 -0.012,-0.024 -0.012,-0.024 -0.012,-0.036 -0.012,-0.024 -0.012,-0.036 -0.012,-0.024 -0.024,-0.036 -0.024,-0.024 -0.024,-0.024 -0.024,-0.036 -0.012,-0.012 -0.012,-0.012 -0.024,-0.012 -0.012,-0.012 -0.024,-0.012 -0.012,-0.012 -0.024,-0.012 -0.012,-0.012 -0.024,-0.012 -0.024,-0.012 -0.024,0 -0.024,-0.012 -0.024,-0.012 -0.024,0 -0.024,-0.012 -0.024,-0.012 -0.036,0 -0.024,0 -0.036,-0.012 -0.024,0 -0.036,0 -0.036,-0.012 -0.024,0 -0.036,0 c -1.392,0 -5.748,0.492 -7.296,0.6 -0.492,0.06 -1.152,0.12 -1.152,1.2 0,0.72 0.552,0.72 1.452,0.72 2.868,0 2.976,0.40801 2.976,1.008 0,0.432 -0.54,2.46 -0.84,3.708 l -4.896,19.488 c -0.708,3 -0.948,3.96 -0.948,6.036 0,5.676 3.156,9.39601 7.584,9.39601 v -1.32 c -2.04,0 -4.008,-1.608 -4.008,-6.036 0,-1.14 0,-2.268 0.96,-6.036 l 1.308,-5.508 c 0.36,-1.32 0.36,-1.428 0.9,-2.088 2.928,-3.876 5.628,-4.776 7.176,-4.776 2.16,0 3.78,1.776 3.78,5.62799 0,3.51601 -1.992,10.38 -3.06,12.67201 -1.968,3.99599 -4.728,6.144 -7.056,6.144 v 1.32 c 7.056,0 14.4,-8.904 14.4,-17.52 0,-5.436 -3.168,-9.552 -7.944,-9.552 -2.736,0 -5.196,1.716 -6.996,3.576 z"
     inkscape:connector-curvature="0"
     style="font-style:normal;font-variant:normal;font-weight:normal;font-stretch:normal;letter-spacing:normal;word-spacing:normal;text-anchor:start;fill:#000000;stroke:#000000;stroke-width:0;stroke-linecap:butt;stroke-linejoin:miter;stroke-miterlimit:10.43299961;stroke-opacity:1;stroke-dasharray:none;stroke-dashoffset:0" />
  <path
     id="path3431"
     d="m 1250.534,217.36727 -0.012,-0.024 0,-0.036 0,-0.012 0,-0.024 0,-0.012 -0.012,-0.024 0,-0.012 -0.012,-0.024 -0.012,-0.024 -0.012,-0.024 -0.012,-0.024 -0.024,-0.036 -0.012,-0.024 -0.024,-0.036 -0.024,-0.036 -0.036,-0.036 -0.024,-0.036 -0.036,-0.048 -0.024,-0.024 -0.012,-0.024 -0.024,-0.024 -0.024,-0.024 -0.024,-0.024 -0.024,-0.036 -0.024,-0.024 -0.024,-0.024 -0.024,-0.036 -0.036,-0.024 -0.024,-0.036 -0.036,-0.036 -0.024,-0.036 -0.036,-0.036 -0.036,-0.036 -0.036,-0.036 -0.036,-0.036 -0.036,-0.036 -0.048,-0.048 -0.036,-0.036 -0.048,-0.048 -0.036,-0.036 -0.048,-0.048 -0.048,-0.048 c -7.464,-7.536 -9.372,-18.828 -9.372,-27.972 0,-10.404 2.268,-20.82 9.612,-28.272 0.78,-0.732 0.78,-0.852 0.78,-1.032 0,-0.42 -0.228,-0.588 -0.588,-0.588 -0.6,0 -5.976,4.056 -9.504,11.64 -3.06,6.588 -3.768,13.224 -3.768,18.252 0,4.668 0.66,11.88 3.936,18.648 3.576,7.356 8.736,11.232 9.336,11.232 0.36,0 0.588,-0.168 0.588,-0.6 z"
     inkscape:connector-curvature="0"
     style="font-style:normal;font-variant:normal;font-weight:normal;font-stretch:normal;letter-spacing:normal;word-spacing:normal;text-anchor:start;fill:#000000;stroke:#000000;stroke-width:0;stroke-linecap:butt;stroke-linejoin:miter;stroke-miterlimit:10.43299961;stroke-opacity:1;stroke-dasharray:none;stroke-dashoffset:0" />
  <path
     id="path3433"
     d="m 1275.266,185.56728 0.228,0.6 0.24,0.612 0.468,1.26 0.468,1.296 0.48,1.32 0.468,1.32 0.456,1.308 0.456,1.284 0.216,0.636 0.216,0.612 0.216,0.6 0.204,0.588 0.204,0.564 0.204,0.54 0.18,0.528 0.192,0.504 0.168,0.468 0.18,0.444 0.156,0.42 0.156,0.384 0.144,0.348 0.132,0.312 0.132,0.276 0.108,0.24 0.108,0.192 0.096,0.144 c 0.96,1.32 1.56,1.32 3.168,1.32 h 1.32 c 0.6,-0.06 0.648,-0.42 0.648,-0.6 0,-0.168 -0.108,-0.3 -0.3,-0.552 -0.576,-0.648 -0.948,-1.536 -1.368,-2.736 l -12.18,-34.008 c -1.26,-3.468 -4.5,-4.26 -7.296,-4.26 -0.3,0 -1.092,0 -1.092,0.66 0,0.492 0.492,0.6 0.552,0.6 1.968,0.36 2.376,0.708 3.876,4.776 l 5.796,16.26 -16.5,16.392 c -0.72,0.708 -1.068,1.08 -1.068,1.848 0,1.02 0.84,1.728 1.8,1.728 0.948,0 1.476,-0.66 1.968,-1.26 z"
     inkscape:connector-curvature="0"
     style="font-style:normal;font-variant:normal;font-weight:normal;font-stretch:normal;letter-spacing:normal;word-spacing:normal;text-anchor:start;fill:#000000;stroke:#000000;stroke-width:0;stroke-linecap:butt;stroke-linejoin:miter;stroke-miterlimit:10.43299961;stroke-opacity:1;stroke-dasharray:none;stroke-dashoffset:0" />
  <path
     id="path3435"
     d="m 1306.046,188.08727 -0.012,-0.444 0,-0.468 -0.012,-0.468 -0.012,-0.492 -0.048,-1.008 -0.072,-1.056 -0.096,-1.104 -0.132,-1.14 -0.168,-1.164 -0.192,-1.21199 -0.24,-1.224 -0.276,-1.236 -0.312,-1.26 -0.372,-1.272 -0.42,-1.284 -0.468,-1.284 -0.252,-0.636 -0.276,-0.636 -0.288,-0.63601 -0.3,-0.636 c -3.576,-7.344 -8.712,-11.232 -9.312,-11.232 -0.36,0 -0.6,0.22801 -0.6,0.58801 0,0.18 0,0.3 1.128,1.38 5.868,5.904 9.276,15.42 9.276,27.92399 0,10.212 -2.208,20.736 -9.636,28.272 -0.768,0.70801 -0.768,0.84 -0.768,1.008 0,0.36 0.24,0.6 0.6,0.6 0.6,0 5.964,-4.06799 9.504,-11.652 3.036,-6.564 3.756,-13.19999 3.756,-18.228 z"
     inkscape:connector-curvature="0"
     style="font-style:normal;font-variant:normal;font-weight:normal;font-stretch:normal;letter-spacing:normal;word-spacing:normal;text-anchor:start;fill:#000000;stroke:#000000;stroke-width:0;stroke-linecap:butt;stroke-linejoin:miter;stroke-miterlimit:10.43299961;stroke-opacity:1;stroke-dasharray:none;stroke-dashoffset:0" />
  <path
     style="fill:none;stroke:#000000;stroke-width:3.82369137px;stroke-linecap:butt;stroke-linejoin:miter;stroke-opacity:1"
     d="m 141.08717,10.297017 24.76602,0"
     id="path3833"
     inkscape:connector-curvature="0" />
  <path
     style="fill:none;stroke:#000000;stroke-width:3.77822065px;stroke-linecap:butt;stroke-linejoin:miter;stroke-opacity:1"
     d="m 1314.2023,758.28662 0,-12.32341"
     id="path3835"
     inkscape:connector-curvature="0" />
</svg>
