<?xml version="1.0" encoding="UTF-8" standalone="no"?>
<!-- Created with Inkscape (http://www.inkscape.org/) -->

<svg
   xmlns:dc="http://purl.org/dc/elements/1.1/"
   xmlns:cc="http://creativecommons.org/ns#"
   xmlns:rdf="http://www.w3.org/1999/02/22-rdf-syntax-ns#"
   xmlns:svg="http://www.w3.org/2000/svg"
   xmlns="http://www.w3.org/2000/svg"
   xmlns:sodipodi="http://sodipodi.sourceforge.net/DTD/sodipodi-0.dtd"
   xmlns:inkscape="http://www.inkscape.org/namespaces/inkscape"
   width="222.3268"
   height="85.668884"
   id="svg2"
   version="1.1"
   inkscape:version="0.48.4 r9939"
   sodipodi:docname="New document 1">
  <defs
     id="defs4">
    <clipPath
       id="clipPath3001"
       clipPathUnits="userSpaceOnUse">
      <path
         id="path3003"
         d="m 0,-31.7999 341.448,0 0,31.9438 -341.448,0 0,-31.9438 z"
         inkscape:connector-curvature="0" />
    </clipPath>
  </defs>
  <sodipodi:namedview
     id="base"
     pagecolor="#ffffff"
     bordercolor="#666666"
     borderopacity="1.0"
     inkscape:pageopacity="0.0"
     inkscape:pageshadow="2"
     inkscape:zoom="1.979899"
     inkscape:cx="229.25451"
     inkscape:cy="-17.293606"
     inkscape:document-units="px"
     inkscape:current-layer="layer1"
     showgrid="false"
     fit-margin-top="0"
     fit-margin-left="0"
     fit-margin-right="0"
     fit-margin-bottom="0"
     inkscape:window-width="1855"
     inkscape:window-height="1056"
     inkscape:window-x="1425"
     inkscape:window-y="24"
     inkscape:window-maximized="1" />
  <metadata
     id="metadata7">
    <rdf:RDF>
      <cc:Work
         rdf:about="">
        <dc:format>image/svg+xml</dc:format>
        <dc:type
           rdf:resource="http://purl.org/dc/dcmitype/StillImage" />
        <dc:title></dc:title>
      </cc:Work>
    </rdf:RDF>
  </metadata>
  <g
     inkscape:label="Layer 1"
     inkscape:groupmode="layer"
     id="layer1"
     transform="translate(-161.8027,-808.60536)">
    <g
       id="g2999"
       clip-path="url(#clipPath3001)"
       transform="matrix(0.625,-1.0825347,-1.0825347,-0.625,979.51258,970.98943)" />
    <text
       id="text3141"
       x="1175.1959"
       y="592.86169"
       style="font-size:15px">
      <tspan
         style="font-size:6.53800011px;font-variant:normal;font-weight:normal;writing-mode:lr-tb;fill:#000000;fill-opacity:1;fill-rule:nonzero;stroke:none;font-family:MTSYN;-inkscape-font-specification:MTSYN"
         x="1175.1959"
         y="592.86169"
         id="tspan3143"></tspan>
    </text>
    <text
       id="text3179"
       x="1080.6149"
       y="624.61768"
       style="font-size:15px">
      <tspan
         style="font-size:6.53800011px;font-variant:normal;font-weight:normal;writing-mode:lr-tb;fill:#000000;fill-opacity:1;fill-rule:nonzero;stroke:none;font-family:MTSYN;-inkscape-font-specification:MTSYN"
         x="1080.6149"
         y="624.61768"
         id="tspan3181"></tspan>
    </text>
    <text
       id="text3211"
       x="1180.3848"
       y="624.61768"
       style="font-size:15px">
      <tspan
         style="font-size:6.53800011px;font-variant:normal;font-weight:normal;writing-mode:lr-tb;fill:#000000;fill-opacity:1;fill-rule:nonzero;stroke:none;font-family:MTSYN;-inkscape-font-specification:MTSYN"
         x="1180.3848"
         y="624.61768"
         id="tspan3213"></tspan>
    </text>
    <text
       id="text3349"
       x="1077.4073"
       y="817.85706"
       style="font-size:15px">
      <tspan
         style="font-size:6.53800011px;font-variant:normal;font-weight:normal;writing-mode:lr-tb;fill:#000000;fill-opacity:1;fill-rule:nonzero;stroke:none;font-family:MTSYN;-inkscape-font-specification:MTSYN"
         x="1077.4073 1079.1726"
         y="817.85706"
         sodipodi:role="line"
         id="tspan3351"></tspan>
    </text>
    <text
       id="text3369"
       x="1368.6998"
       y="817.85706"
       style="font-size:15px">
      <tspan
         style="font-size:6.53800011px;font-variant:normal;font-weight:normal;writing-mode:lr-tb;fill:#000000;fill-opacity:1;fill-rule:nonzero;stroke:none;font-family:MTSYN;-inkscape-font-specification:MTSYN"
         x="1368.6998"
         y="817.85706"
         id="tspan3371"></tspan>
    </text>
    <text
       id="text3381"
       x="1106.2708"
       y="828.44232"
       style="font-size:15px">
      <tspan
         style="font-size:6.53800011px;font-variant:normal;font-weight:normal;writing-mode:lr-tb;fill:#000000;fill-opacity:1;fill-rule:nonzero;stroke:none;font-family:MTSYN;-inkscape-font-specification:MTSYN"
         x="1106.2708"
         y="828.44232"
         id="tspan3383"></tspan>
    </text>
    <text
       id="text3393"
       x="1125.4683"
       y="828.44232"
       style="font-size:15px">
      <tspan
         style="font-size:6.53800011px;font-variant:normal;font-weight:normal;writing-mode:lr-tb;fill:#000000;fill-opacity:1;fill-rule:nonzero;stroke:none;font-family:MTSYN;-inkscape-font-specification:MTSYN"
         x="1125.4683 1127.2335"
         y="828.44232"
         sodipodi:role="line"
         id="tspan3395"></tspan>
    </text>
    <text
       id="text3405"
       x="1186.1481"
       y="828.44232"
       style="font-size:15px">
      <tspan
         style="font-size:6.53800011px;font-variant:normal;font-weight:normal;writing-mode:lr-tb;fill:#000000;fill-opacity:1;fill-rule:nonzero;stroke:none;font-family:MTSYN;-inkscape-font-specification:MTSYN"
         x="1186.1481"
         y="828.44232"
         id="tspan3407"></tspan>
    </text>
    <text
       id="text3425"
       x="1255.8086"
       y="828.44232"
       style="font-size:15px">
      <tspan
         style="font-size:6.53800011px;font-variant:normal;font-weight:normal;writing-mode:lr-tb;fill:#000000;fill-opacity:1;fill-rule:nonzero;stroke:none;font-family:MTSYN;-inkscape-font-specification:MTSYN"
         x="1255.8086 1257.5739"
         y="828.44232"
         sodipodi:role="line"
         id="tspan3427"></tspan>
    </text>
    <text
       id="text3445"
       x="1045.3698"
       y="881.45068"
       style="font-size:15px">
      <tspan
         style="font-size:9.34000015px;font-variant:normal;font-weight:normal;writing-mode:lr-tb;fill:#000000;fill-opacity:1;fill-rule:nonzero;stroke:none;font-family:MTSYN;-inkscape-font-specification:MTSYN"
         x="1045.3698"
         y="881.45068"
         id="tspan3447"></tspan>
    </text>
    <text
       id="text3453"
       x="1134.7861"
       y="881.45056"
       style="font-size:15px">
      <tspan
         style="font-size:9.34000015px;font-variant:normal;font-weight:normal;writing-mode:lr-tb;fill:#000000;fill-opacity:1;fill-rule:nonzero;stroke:none;font-family:MTSYN;-inkscape-font-specification:MTSYN"
         x="1134.7861 1137.3079"
         y="881.45056"
         sodipodi:role="line"
         id="tspan3455"></tspan>
    </text>
    <text
       id="text3515"
       x="1132.8239"
       y="995.50122"
       style="font-size:15px">
      <tspan
         style="font-size:9.34000015px;font-variant:normal;font-weight:normal;writing-mode:lr-tb;fill:#000000;fill-opacity:1;fill-rule:nonzero;stroke:none;font-family:MTSYN;-inkscape-font-specification:MTSYN"
         x="1132.8239"
         y="995.50122"
         id="tspan3517"></tspan>
    </text>
    <text
       id="text3527"
       x="1154.5503"
       y="984.28583"
       style="font-size:15px">
      <tspan
         style="font-size:11.83062553px;font-variant:normal;font-weight:normal;writing-mode:lr-tb;fill:#000000;fill-opacity:1;fill-rule:nonzero;stroke:none;font-family:MTEX;-inkscape-font-specification:MTEX"
         x="1154.5503"
         y="984.28583"
         id="tspan3529"></tspan>
    </text>
    <text
       id="text3639"
       x="1176.7935"
       y="1064.899"
       style="font-size:15px">
      <tspan
         style="font-size:9.34000015px;font-variant:normal;font-weight:normal;writing-mode:lr-tb;fill:#000000;fill-opacity:1;fill-rule:nonzero;stroke:none;font-family:MTSYN;-inkscape-font-specification:MTSYN"
         x="1176.7935"
         y="1064.899"
         id="tspan3641"></tspan>
    </text>
    <path
       id="path3257-0"
       style="fill:none;stroke:#000000;stroke-width:0.625;stroke-linecap:butt;stroke-linejoin:miter;stroke-miterlimit:4;stroke-opacity:1;stroke-dasharray:none"
       d="m 168.3957,849.10299 8.2638,44.85875"
       inkscape:connector-curvature="0" />
    <path
       id="path3261-0"
       style="fill:#d9d9d9;fill-opacity:1;fill-rule:nonzero;stroke:none"
       d="m 243.0533,841.47299 c -6.9725,-0.985 -13.515,1.475 -16.1312,8.2225 -2.9038,7.48625 -1.0413,15.16875 4.745,20.755 2.11,2.0375 4.9675,3.475 7.8137,4.175 3.3888,0.83375 7.0888,-0.195 10.3388,1.415 2.0062,0.99375 4.2875,2.10375 6.5787,2.195 2.095,0.0862 4.07,-1.02125 6.1575,-0.67875 3.1963,0.52375 5.675,2.95625 8.5288,4.4425 10.7687,5.61125 23.6737,1.71 34.325,-2.0175 5.0187,-1.7575 8.5787,-6.1275 12.9362,-8.92 6.2275,-3.9875 14.8263,0.33375 21.7863,-0.43125 7.2562,-0.7975 15.1662,-3.52375 20.5512,-8.61625 3.7325,-3.52875 6.0225,-8.92 2.4075,-13.64 -1.7725,-2.31625 -2.8237,-2.6025 -3.5712,-5.5925 -1.3063,-5.20875 -3.34,-8.80875 -7.27,-12.56125 -2.3613,-2.25625 -5.16,-3.48 -7.9688,-5.035 -4.385,-2.4275 -2.8362,-8.2075 -4.8962,-11.9925 -3.1163,-5.72875 -10.0438,-2.5075 -14.3538,0.10125 -5.2225,3.16 -6.4762,0.29625 -10.9837,-2.68625 -6.5988,-4.36875 -14.68,-0.9375 -19.7863,4.045 -3.0087,2.9325 -4.6187,5.76625 -6.5375,9.56125 -4.02,7.94875 -11.8262,14.3775 -19.8075,18.0775 -8.3112,3.85125 -14.64,1.395 -23.05,-0.4875 -0.6062,-0.13625 -1.2112,-0.24625 -1.8125,-0.33125"
       inkscape:connector-curvature="0" />
    <path
       id="path3265-1"
       style="fill:none;stroke:#000000;stroke-width:1.25;stroke-linecap:round;stroke-linejoin:miter;stroke-miterlimit:4;stroke-opacity:1;stroke-dasharray:0, 3.75;stroke-dashoffset:0"
       d="m 219.0595,862.98424 164.445,-30.315"
       inkscape:connector-curvature="0" />
    <path
       id="path3269-9"
       style="fill:none;stroke:#000000;stroke-width:0.625;stroke-linecap:butt;stroke-linejoin:miter;stroke-miterlimit:4;stroke-opacity:1;stroke-dasharray:none"
       d="m 172.527,871.53173 44.1038,-8.12375"
       inkscape:connector-curvature="0" />
    <path
       id="path3273-5"
       style="fill:#000000;fill-opacity:1;fill-rule:nonzero;stroke:none"
       d="m 215.4483,859.79673 1.3763,7.4675 3.045,-4.42125 -4.4213,-3.04625"
       inkscape:connector-curvature="0" />
    <path
       id="path3277-5"
       style="fill:#231f20;fill-opacity:1;fill-rule:nonzero;stroke:none"
       d="m 175.027,871.53173 c 0,1.38 -1.12,2.5 -2.5,2.5 -1.3812,0 -2.5,-1.12 -2.5,-2.5 0,-1.38 1.1188,-2.5 2.5,-2.5 1.38,0 2.5,1.12 2.5,2.5"
       inkscape:connector-curvature="0" />
    <path
       id="path3281-0"
       style="fill:#231f20;fill-opacity:1;fill-rule:nonzero;stroke:none"
       d="m 371.6132,835.32299 c 0,1.38 -1.12,2.5 -2.5,2.5 -1.38,0 -2.5,-1.12 -2.5,-2.5 0,-1.38 1.12,-2.5 2.5,-2.5 1.38,0 2.5,1.12 2.5,2.5"
       inkscape:connector-curvature="0" />
    <path
       id="path3285-1"
       style="fill:#231f20;fill-opacity:1;fill-rule:nonzero;stroke:none"
       d="m 162.6757,873.16673 c -0.078,-0.4425 -0.145,-0.62625 -0.5325,-0.5575 -0.1,0.0175 -0.21,0.0375 -0.3075,0.0662 l -0.033,-0.1775 c 0.5038,-0.26 1.0025,-0.54125 1.4963,-0.84625 l 0.07,0.01 0.1425,0.80875 0.026,0.0188 c 0.1788,-0.35125 0.5925,-0.98375 1.445,-1.13375 0.9863,-0.17375 1.9888,0.58625 2.2475,2.06 0.225,1.27375 -0.2887,2.96375 -1.8287,3.235 -0.4425,0.0775 -0.7738,0.01 -1.2025,-0.28 l 0.3062,1.74 c 0.125,0.70875 0.3238,0.79875 1.1213,0.65875 l 0.035,0.2 -2.68,0.47125 -0.034,-0.1875 c 0.7213,-0.185 0.725,-0.425 0.64,-0.90125 l -0.9125,-5.185 z m 1.4163,2.595 c 0.045,0.255 0.65,0.63875 1.2587,0.53125 0.3663,-0.0638 1.3263,-0.45 0.9863,-2.3775 -0.045,-0.255 -0.4163,-2.04 -1.7675,-1.80125 -0.4,0.07 -0.965,0.48875 -0.9575,0.92125 l 0.48,2.72625"
       inkscape:connector-curvature="0" />
    <path
       id="path3289-7"
       style="fill:#231f20;fill-opacity:1;fill-rule:nonzero;stroke:none"
       d="m 368.687,843.35049 c -0.077,-0.4425 -0.145,-0.62625 -0.5325,-0.5575 -0.1,0.0175 -0.2113,0.0375 -0.3087,0.0663 l -0.03,-0.1775 c 0.5012,-0.26 1.0012,-0.54125 1.495,-0.84625 l 0.071,0.01 0.1413,0.80875 0.026,0.0188 c 0.1788,-0.35125 0.5925,-0.98375 1.4462,-1.13375 0.9851,-0.17375 1.9876,0.58625 2.2476,2.06 0.2237,1.27375 -0.2901,2.96375 -1.8288,3.235 -0.4437,0.0775 -0.775,0.01 -1.2037,-0.27875 l 0.3062,1.73875 c 0.1263,0.70875 0.3238,0.79875 1.1213,0.65875 l 0.036,0.2 -2.6825,0.4725 -0.033,-0.18875 c 0.7213,-0.185 0.725,-0.425 0.64,-0.90125 l -0.9125,-5.185 z m 1.4163,2.595 c 0.045,0.255 0.6487,0.63875 1.26,0.53125 0.365,-0.0638 1.3237,-0.45 0.985,-2.3775 -0.045,-0.255 -0.4163,-2.04 -1.7675,-1.80125 -0.4,0.07 -0.965,0.48875 -0.9575,0.9225 l 0.48,2.725"
       inkscape:connector-curvature="0" />
    <path
       id="path3293-7"
       style="fill:#231f20;fill-opacity:1;fill-rule:nonzero;stroke:none"
       d="m 373.8545,840.97799 c -0.1125,0.20375 -0.49,0.075 -0.4362,-0.14 l 0.7275,-2.87 c 0.056,-0.20375 0.545,-0.22125 0.7175,-0.14875 0.1224,0.0475 0.49,0.3825 0.3762,0.585 l -1.385,2.57375"
       inkscape:connector-curvature="0" />
    <path
       id="path3297-3"
       style="fill:#231f20;fill-opacity:1;fill-rule:nonzero;stroke:none"
       d="m 376.5907,840.49675 c -0.1125,0.2025 -0.49,0.075 -0.4362,-0.14 l 0.7275,-2.87 c 0.056,-0.20375 0.545,-0.2225 0.7175,-0.14875 0.1212,0.0462 0.4887,0.38125 0.3762,0.58375 l -1.385,2.575"
       inkscape:connector-curvature="0" />
    <path
       id="path3301-8"
       style="fill:#231f20;fill-opacity:1;fill-rule:nonzero;stroke:none"
       d="m 303.4982,847.87924 c 0,1.38 -1.12,2.5 -2.5,2.5 -1.3812,0 -2.5,-1.12 -2.5,-2.5 0,-1.38 1.1188,-2.5 2.5,-2.5 1.38,0 2.5,1.12 2.5,2.5"
       inkscape:connector-curvature="0" />
    <path
       id="path3305-5"
       style="fill:#231f20;fill-opacity:1;fill-rule:nonzero;stroke:none"
       d="m 300.6933,856.038 c -0.077,-0.4425 -0.145,-0.62625 -0.5325,-0.5575 -0.1,0.0175 -0.2113,0.0375 -0.3087,0.0662 l -0.03,-0.1775 c 0.5012,-0.26 1,-0.54125 1.495,-0.84625 l 0.071,0.0112 0.1413,0.80875 0.026,0.0175 c 0.1788,-0.35125 0.5925,-0.98375 1.445,-1.13375 0.9863,-0.17375 1.9875,0.58625 2.2488,2.06 0.2237,1.27375 -0.2901,2.96375 -1.8288,3.235 -0.4437,0.0775 -0.7762,0.01 -1.2037,-0.27875 l 0.3062,1.73875 c 0.125,0.70875 0.3238,0.79875 1.1213,0.65875 l 0.036,0.2 -2.6825,0.47125 -0.033,-0.1875 c 0.7213,-0.185 0.725,-0.425 0.64,-0.90125 l -0.9125,-5.185 z m 1.4163,2.595 c 0.045,0.255 0.6487,0.63875 1.2587,0.53125 0.3663,-0.0637 1.325,-0.45 0.9863,-2.3775 -0.045,-0.255 -0.4163,-2.04 -1.7675,-1.80125 -0.4,0.07 -0.965,0.48875 -0.9575,0.92125 l 0.48,2.72625"
       inkscape:connector-curvature="0" />
    <path
       id="path3309-5"
       style="fill:#231f20;fill-opacity:1;fill-rule:nonzero;stroke:none"
       d="m 305.8595,853.66548 c -0.1125,0.2025 -0.49,0.075 -0.4362,-0.14 l 0.7275,-2.87 c 0.056,-0.20375 0.545,-0.22125 0.7175,-0.14875 0.1212,0.0462 0.4887,0.38125 0.3762,0.58375 l -1.385,2.575"
       inkscape:connector-curvature="0" />
  </g>
</svg>
